<!--?xml version="1.0" standalone="no"?-->
              <svg id="sw-js-blob-svg" viewBox="0 0 100 100" xmlns="http://www.w3.org/2000/svg" version="1.1">
                    <defs> 
                        <linearGradient id="sw-gradient" x1="0" x2="1" y1="1" y2="0">
                            <stop id="stop1" stop-color="rgba(248, 117, 55, 1)" offset="0%"></stop>
                            <stop id="stop2" stop-color="rgba(251, 168, 31, 1)" offset="100%"></stop>
                        </linearGradient>
                    </defs>
                <path fill="url(#sw-gradient)" d="M13.1,-10.6C18.9,-10.8,26.7,-8.4,25.6,-5.8C24.5,-3.2,14.5,-0.3,10.4,5.3C6.3,10.9,8.2,19.3,6.4,21.9C4.5,24.5,-1.1,21.4,-4.8,18C-8.6,14.6,-10.5,10.9,-16.9,6.5C-23.3,2.1,-34.2,-2.9,-37.2,-10.2C-40.3,-17.5,-35.5,-27,-28,-26.6C-20.5,-26.1,-10.2,-15.6,-3.3,-11.7C3.7,-7.8,7.3,-10.4,13.1,-10.6Z" width="100%" height="100%" transform="translate(50 50)" style="transition: 0.3s;" stroke-width="0" stroke="url(#sw-gradient)"></path>
              </svg>